<svg width="16" height="16" viewBox="0 0 16 16" fill="none" xmlns="http://www.w3.org/2000/svg">
<g clip-path="url(#clip0_8600_2924)">
<mask id="mask0_8600_2924" style="mask-type:luminance" maskUnits="userSpaceOnUse" x="0" y="0" width="16" height="16">
<path d="M0 0H16V16H0V0Z" fill="white"/>
</mask>
<g mask="url(#mask0_8600_2924)">
<path fill-rule="evenodd" clip-rule="evenodd" d="M5.5 0C4.81 0 4.25 0.56 4.25 1.25V3.25H2.25C1.56 3.25 1 3.81 1 4.5V6.882L0.94 6.939L1 7V7.002L0.938 6.942L0.936 6.943L0.933 6.947L0.927 6.953L0.913 6.967C0.881121 7.00092 0.850435 7.03594 0.821 7.072C0.775667 7.12667 0.726667 7.19267 0.674 7.27C0.547323 7.46206 0.441079 7.66684 0.357 7.881C0.154 8.39 0 9.08 0 10V10.009C0.00323273 10.653 0.133403 11.2901 0.383065 11.8838C0.632728 12.4775 0.996984 13.0162 1.455 13.469C2.434 14.437 3.825 15 5.5 15C7.571 15 9.285 14.41 10.607 13.363C11.604 12.573 12.32 11.567 12.802 10.477C13.1361 10.4574 13.4676 10.4061 13.792 10.324C14.611 10.106 15.371 9.613 15.842 8.671C15.9301 8.49467 15.9827 8.3027 15.9966 8.10606C16.0105 7.90942 15.9855 7.71197 15.923 7.525C15.602 6.563 14.803 5.889 13.852 5.648C13.612 4.698 12.937 3.898 11.975 3.577C11.788 3.51454 11.5906 3.48954 11.3939 3.50344C11.1973 3.51733 11.0053 3.56986 10.829 3.658C9.737 4.204 9.327 5.241 9.161 5.987C9.12367 6.15767 9.094 6.32867 9.072 6.5H9V1.25C9 0.56 8.44 0 7.75 0H5.5ZM7.5 6.5V4.75H5.75V6.5H7.5ZM4.25 6.5V4.75H2.5V6.5H4.25ZM2 8C2 8 1.5 8.5 1.5 10C1.51 11.738 2.844 13.5 5.5 13.5C9.05 13.5 11 11.5 11.75 9C13 9 14 9 14.5 8C14.3848 7.67445 14.1508 7.40444 13.845 7.244C13.411 7.007 12.831 6.96 12.25 7.25C12.54 6.67 12.493 6.089 12.256 5.655C12.0956 5.34919 11.8255 5.11524 11.5 5C10.5 5.5 10.5 7 10.5 8H2ZM5.75 3.25H7.5V1.5H5.75V3.25ZM4.25 9C4.44891 9 4.63968 9.07902 4.78033 9.21967C4.92098 9.36032 5 9.55109 5 9.75V10.75C5 10.9489 4.92098 11.1397 4.78033 11.2803C4.63968 11.421 4.44891 11.5 4.25 11.5C4.05109 11.5 3.86032 11.421 3.71967 11.2803C3.57902 11.1397 3.5 10.9489 3.5 10.75V9.75C3.5 9.55109 3.57902 9.36032 3.71967 9.21967C3.86032 9.07902 4.05109 9 4.25 9Z" fill="black"/>
</g>
</g>
<defs>
<clipPath id="clip0_8600_2924">
<rect width="16" height="16" fill="white"/>
</clipPath>
</defs>
</svg>
